Run_20001
nRows=4
nColumns=164

# SIMM Motion File Header:
name Run_20001
datacolumns 164
datarows 4
otherdata 1
range 1.34166700 1.36666700
endheader
time	pelvis_tilt	pelvis_list	pelvis_rotation	pelvis_tx	pelvis_ty	pelvis_tz	hip_flexion_r	hip_adduction_r	hip_rotation_r	knee_angle_r	ankle_angle_r	hip_flexion_l	hip_adduction_l	hip_rotation_l	knee_angle_l	ankle_angle_l	lumbar_extension	lumbar_bending	lumbar_rotation	arm_flex_r	arm_add_r	arm_rot_r	elbow_flex_r	pro_sup_r	arm_flex_l	arm_add_l	arm_rot_l	elbow_flex_l	pro_sup_l	subtalar_angle_r	mtp_angle_r	subtalar_angle_l	mtp_angle_l	wrist_flex_r	wrist_dev_r	wrist_flex_l	wrist_dev_l	LASI_tx	LASI_ty	LASI_tz	RASI_tx	RASI_ty	RASI_tz	LPSI_tx	LPSI_ty	LPSI_tz	RPSI_tx	RPSI_ty	RPSI_tz	RTH1_tx	RTH1_ty	RTH1_tz	RTH2_tx	RTH2_ty	RTH2_tz	RTH3_tx	RTH3_ty	RTH3_tz	LTH1_tx	LTH1_ty	LTH1_tz	LTH2_tx	LTH2_ty	LTH2_tz	LTH3_tx	LTH3_ty	LTH3_tz	RTB1_tx	RTB1_ty	RTB1_tz	RTB2_tx	RTB2_ty	RTB2_tz	RTB3_tx	RTB3_ty	RTB3_tz	LTB1_tx	LTB1_ty	LTB1_tz	LTB2_tx	LTB2_ty	LTB2_tz	LTB3_tx	LTB3_ty	LTB3_tz	RCAL_tx	RCAL_ty	RCAL_tz	RTOE_tx	RTOE_ty	RTOE_tz	RMT5_tx	RMT5_ty	RMT5_tz	LCAL_tx	LCAL_ty	LCAL_tz	LTOE_tx	LTOE_ty	LTOE_tz	LMT5_tx	LMT5_ty	LMT5_tz	LACR_tx	LACR_ty	LACR_tz	RACR_tx	RACR_ty	RACR_tz	CLAV_tx	CLAV_ty	CLAV_tz	C7_tx	C7_ty	C7_tz	RUA1_tx	RUA1_ty	RUA1_tz	RUA2_tx	RUA2_ty	RUA2_tz	RUA3_tx	RUA3_ty	RUA3_tz	RLEL_tx	RLEL_ty	RLEL_tz	RMEL_tx	RMEL_ty	RMEL_tz	LUA1_tx	LUA1_ty	LUA1_tz	LUA2_tx	LUA2_ty	LUA2_tz	LUA3_tx	LUA3_ty	LUA3_tz	LLEL_tx	LLEL_ty	LLEL_tz	LMEL_tx	LMEL_ty	LMEL_tz	RFAsuperior_tx	RFAsuperior_ty	RFAsuperior_tz	RFAradius_tx	RFAradius_ty	RFAradius_tz	RFAulna_tx	RFAulna_ty	RFAulna_tz	LFAsuperior_tx	LFAsuperior_ty	LFAsuperior_tz	LFAradius_tx	LFAradius_ty	LFAradius_tz	LFAulna_tx	LFAulna_ty	LFAulna_tz
      1.34166700	     -1.58722612	      1.66939191	     -1.85581103	      1.05799177	      1.01329287	     -0.31928820	      5.02251925	      5.52063442	      5.53059448	    -65.78761162	     -9.62015900	     23.26604611	      6.32127848	      2.62842745	    -28.45061106	     -9.57438809	     -9.74329030	     -3.84143122	      7.07458101	    -28.29612927	    -10.83984205	     -6.67086202	     88.04797014	     75.67429406	    -45.58942969	    -18.03607285	     -7.71812005	    106.18340909	     82.62051550	      0.00000000	      0.00000000	      0.00000000	      0.00000000	      0.00000000	      0.00000000	      0.00000000	      0.00000000	      1.06890325	      1.02619409	     -0.43004282	      1.05704591	      1.01986403	     -0.19326683	      0.89902462	      1.05790222	     -0.37395028	      0.89363348	      1.05675373	     -0.27441655	      1.00270480	      0.85222766	     -0.15553106	      1.06131467	      0.70617464	     -0.20001108	      0.99720014	      0.61695502	     -0.21051655	      1.04223515	      0.86091424	     -0.49680045	      1.14589435	      0.78710201	     -0.47427064	      1.10641736	      0.64683064	     -0.45529709	      0.92560110	      0.40758660	     -0.27367930	      0.84668709	      0.42292110	     -0.21660017	      0.76159816	      0.33009033	     -0.27442205	      1.19260947	      0.42060920	     -0.38292858	      1.14759686	      0.32394439	     -0.42960252	      1.15709507	      0.22755776	     -0.36045480	      0.58473786	      0.36670480	     -0.29182455	      0.66582192	      0.17537255	     -0.32555981	      0.62777460	      0.16363078	     -0.22461796	      1.02535266	      0.11646698	     -0.35357930	      1.22187502	      0.07933366	     -0.29450586	      1.22148805	      0.03929340	     -0.39713290	      1.03953077	      1.49247772	     -0.51757666	      1.06699967	      1.49673316	     -0.15700966	      1.11772118	      1.44495001	     -0.32001996	      1.01045413	      1.53253540	     -0.34362317	      1.03521510	      1.42187220	     -0.10538587	      1.02838301	      1.33065314	     -0.11280173	      0.94364231	      1.34647590	     -0.09014595	      0.90530192	      1.23935053	     -0.05799864	      0.88007693	      1.23845268	     -0.12623945	      0.98137733	      1.44698038	     -0.56887603	      0.91224263	      1.42189090	     -0.52571379	      0.92430108	      1.35775777	     -0.58331842	      0.81080926	      1.30168742	     -0.59632620	      0.79735120	      1.30672177	     -0.52395258	      0.99222478	      1.19678615	     -0.06344919	      1.11989890	      1.08129103	     -0.12278544	      1.07224773	      1.03348850	     -0.11316854	      0.87619483	      1.25293150	     -0.60446047	      1.02569821	      1.13719593	     -0.54376602	      0.97611605	      1.09190572	     -0.55722134
      1.35000000	     -1.26129720	      1.64267406	     -1.86180179	      1.05789239	      1.00614441	     -0.31926600	      6.47959012	      5.24067080	      4.96208551	    -69.25449399	     -8.80338700	     22.73091451	      6.67086391	      3.12206587	    -30.59707229	     -4.95259156	    -10.11543696	     -3.92492821	      6.60482996	    -28.94554119	    -10.69666068	     -6.64355274	     86.36707913	     75.06140131	    -44.74774775	    -18.25220542	     -7.34483337	    106.32148930	     82.58466577	      0.00000000	      0.00000000	      0.00000000	      0.00000000	      0.00000000	      0.00000000	      0.00000000	      0.00000000	      1.06915951	      1.01832743	     -0.43000202	      1.05725743	      1.01341628	     -0.19351171	      0.89906557	      1.04971179	     -0.37386194	      0.89347661	      1.04851331	     -0.27470237	      1.00525042	      0.84492083	     -0.15497637	      1.06750573	      0.70009355	     -0.19730728	      1.00597675	      0.60955894	     -0.20941926	      1.04269995	      0.85367322	     -0.49499980	      1.14573538	      0.78104960	     -0.47164420	      1.10640083	      0.64007964	     -0.45434225	      0.93635371	      0.40327368	     -0.27064243	      0.85736053	      0.42155836	     -0.21433506	      0.77000317	      0.33076905	     -0.27122598	      1.18602339	      0.41102453	     -0.37973518	      1.13708350	      0.31615360	     -0.42667158	      1.14125772	      0.21942339	     -0.35745375	      0.59388943	      0.37216757	     -0.29019076	      0.67111694	      0.17859699	     -0.32026618	      0.63285963	      0.16963219	     -0.21902085	      1.00534028	      0.10901472	     -0.35214435	      1.20347717	      0.07740572	     -0.29376523	      1.20434885	      0.04011849	     -0.39789832	      1.04086647	      1.48432803	     -0.51841116	      1.06617356	      1.48916135	     -0.15697835	      1.11781699	      1.43735238	     -0.31998432	      1.01041049	      1.52535025	     -0.34454587	      1.03338579	      1.41425905	     -0.10567106	      1.02464530	      1.32278656	     -0.11505154	      0.94065195	      1.34026739	     -0.09125569	      0.90000093	      1.23439226	     -0.05955398	      0.87521516	      1.23367532	     -0.12782688	      0.98346980	      1.43714604	     -0.57014950	      0.91352937	      1.41180559	     -0.52836428	      0.92752011	      1.34714023	     -0.58507682	      0.81493564	      1.29019004	     -0.59938929	      0.80032956	      1.29525090	     -0.52721855	      0.98536954	      1.18877763	     -0.06347916	      1.10956690	      1.06737176	     -0.11932413	      1.05943838	      1.02192907	     -0.11019423	      0.88111710	      1.24221054	     -0.60635963	      1.03133055	      1.12948569	     -0.54292292	      0.98287972	      1.08303284	     -0.55675972
      1.35833300	     -0.90263097	      1.62648596	     -1.89550626	      1.05759078	      0.99860675	     -0.31956574	      7.98477136	      4.84237067	      4.38713289	    -72.66704090	     -7.92248161	     22.05541125	      7.04648912	      3.43727263	    -32.54373664	     -0.16955928	    -10.52726532	     -3.97390461	      6.11026753	    -29.57251332	    -10.62445549	     -6.61673951	     84.60977009	     74.37878127	    -43.75867712	    -18.39922807	     -6.90167686	    106.34478434	     82.58923402	      0.00000000	      0.00000000	      0.00000000	      0.00000000	      0.00000000	      0.00000000	      0.00000000	      0.00000000	      1.06924612	      1.01011358	     -0.43031261	      1.05723101	      1.00664504	     -0.19411262	      0.89894765	      1.04108829	     -0.37406293	      0.89297220	      1.03974204	     -0.27530174	      1.00722801	      0.83738369	     -0.15439955	      1.07367291	      0.69389586	     -0.19431408	      1.01487281	      0.60198822	     -0.20821038	      1.04301300	      0.84518909	     -0.49374161	      1.14509270	      0.77275686	     -0.46965353	      1.10532864	      0.63178372	     -0.45354445	      0.94774101	      0.39893354	     -0.26723705	      0.86873543	      0.41989296	     -0.21164860	      0.77941017	      0.33105432	     -0.26799176	      1.17827740	      0.40110507	     -0.37632110	      1.12532452	      0.30876146	     -0.42384189	      1.12489708	      0.21181869	     -0.35441053	      0.60413379	      0.37670456	     -0.28882104	      0.67795907	      0.18111497	     -0.31468841	      0.63958787	      0.17514980	     -0.21318641	      0.98521007	      0.10173657	     -0.35041266	      1.18532683	      0.07654642	     -0.29316764	      1.18697069	      0.04121207	     -0.39817238	      1.04215402	      1.47598951	     -0.51928930	      1.06494852	      1.48138062	     -0.15667160	      1.11791779	      1.42955022	     -0.31978559	      1.01017280	      1.51783923	     -0.34549493	      1.03114271	      1.40609579	     -0.10590569	      1.02055202	      1.31456636	     -0.11723449	      0.93728573	      1.33355870	     -0.09241719	      0.89452512	      1.22899348	     -0.06135617	      0.87020756	      1.22840723	     -0.12955583	      0.98556096	      1.42683854	     -0.57134138	      0.91485304	      1.40109083	     -0.53109248	      0.93098971	      1.33578011	     -0.58670020	      0.81956298	      1.27788363	     -0.60245784	      0.80363094	      1.28295095	     -0.53052240	      0.97817451	      1.18016901	     -0.06339147	      1.09844447	      1.05293083	     -0.11572366	      1.04580082	      1.01008377	     -0.10725208	      0.88647644	      1.23070534	     -0.60821439	      1.03733955	      1.12106123	     -0.54188712	      0.99006357	      1.07346014	     -0.55614539
      1.36666700	     -0.52433627	      1.68433900	     -1.95286403	      1.05698223	      0.99087914	     -0.32012459	      9.56408494	      4.28059443	      3.84813972	    -76.01179171	     -6.94233280	     21.31284536	      7.49970697	      3.51010153	    -34.26867150	      4.14596625	    -10.97921899	     -4.06516713	      5.56679702	    -30.13270715	    -10.61390548	     -6.56973587	     82.74505681	     73.61248868	    -42.60031654	    -18.47866322	     -6.40371177	    106.25098741	     82.55797997	      0.00000000	      0.00000000	      0.00000000	      0.00000000	      0.00000000	      0.00000000	      0.00000000	      0.00000000	      1.06905790	      1.00185444	     -0.43095625	      1.05683551	      0.99955344	     -0.19492131	      0.89857997	      1.03239466	     -0.37456755	      0.89194229	      1.03058896	     -0.27601043	      1.00875178	      0.82980562	     -0.15388784	      1.07992639	      0.68788105	     -0.19118924	      1.02405543	      0.59449598	     -0.20677419	      1.04311857	      0.83613231	     -0.49321417	      1.14391723	      0.76227738	     -0.46868765	      1.10287360	      0.62211122	     -0.45240465	      0.95970775	      0.39472960	     -0.26354287	      0.88075693	      0.41807141	     -0.20852956	      0.78981951	      0.33101470	     -0.26480339	      1.16953773	      0.39137234	     -0.37270216	      1.11324166	      0.30179862	     -0.42092465	      1.10907308	      0.20503865	     -0.35121384	      0.61527072	      0.38019034	     -0.28767116	      0.68642528	      0.18295775	     -0.30895909	      0.64812569	      0.18005487	     -0.20721526	      0.96606859	      0.09581877	     -0.34827351	      1.16784499	      0.07561567	     -0.29215090	      1.16969495	      0.04202394	     -0.39775892	      1.04335364	      1.46767002	     -0.52023843	      1.06324549	      1.47362340	     -0.15620107	      1.11805890	      1.42176646	     -0.31937207	      1.00984405	      1.51027659	     -0.34641085	      1.02847111	      1.39758702	     -0.10612093	      1.01629534	      1.30644980	     -0.11867050	      0.93352287	      1.32648696	     -0.09367010	      0.88897122	      1.22327559	     -0.06344915	      0.86508466	      1.22281279	     -0.13133542	      0.98770895	      1.41607674	     -0.57249429	      0.91628820	      1.38974810	     -0.53388259	      0.93477919	      1.32377258	     -0.58813743	      0.82474701	      1.26489781	     -0.60546789	      0.80723728	      1.27000625	     -0.53375010	      0.97066368	      1.17108121	     -0.06317338	      1.08656472	      1.03815345	     -0.11198397	      1.03140875	      0.99806557	     -0.10442008	      0.89232599	      1.21852378	     -0.60994667	      1.04384760	      1.11207632	     -0.54063943	      0.99773790	      1.06335338	     -0.55528415
